<?xml version="1.0" encoding="UTF-8"?>
<svg width="24px" height="24px" viewBox="0 0 24 24" version="1.1" xmlns="http://www.w3.org/2000/svg" xmlns:xlink="http://www.w3.org/1999/xlink">
    <!-- Generator: Sketch 60.1 (88133) - https://sketch.com -->
    <title>Icons/Social/Multi/Email</title>
    <desc>Created with Sketch.</desc>
    <g id="Product-page" stroke="none" stroke-width="1" fill="none" fill-rule="evenodd">
        <g id="Desktop" transform="translate(-982.000000, -943.000000)">
            <g id="Product" transform="translate(147.000000, 144.000000)">
                <g id="Detail" transform="translate(686.000000, 0.000000)">
                    <g id="Share" transform="translate(0.000000, 799.000000)">
                        <g id="Icons/Social/Multi/Email" transform="translate(149.000000, 0.000000)">
                            <g id="Email">
                                <circle id="Oval" fill="#E6E6E6" cx="12" cy="12" r="12"></circle>
                                <path d="M6.50825,10.0647158 L11.5129063,12.6633824 C11.66175,12.7407158 11.8301875,12.7817158 12,12.7817158 C12.1698125,12.7817158 12.33825,12.7407158 12.48675,12.6633824 L12.48675,12.6633824 L17.49175,10.0650491 C17.4934688,10.0787158 17.5,10.0907158 17.5,10.1047158 L17.5,10.1047158 L17.5,15.6666667 C17.5,15.851 17.346,16 17.15625,16 L17.15625,16 L6.84375,16 C6.654,16 6.5,15.851 6.5,15.6666667 L6.5,15.6666667 L6.5,10.1047158 C6.5,10.0907158 6.50653125,10.0783824 6.50825,10.0647158 L6.50825,10.0647158 Z M17.15625,8 C17.346,8 17.5,8.149 17.5,8.33333333 L17.5,8.33333333 L17.5,8.88105566 C17.5,9.00405566 17.4302187,9.11705566 17.3185,9.17505566 L17.3185,9.17505566 L12.16225,11.8520557 C12.1117187,11.878389 12.0556875,11.891389 12,11.891389 C11.9443125,11.891389 11.8882813,11.878389 11.83775,11.8520557 L11.83775,11.8520557 L6.6815,9.17505566 C6.56978125,9.11705566 6.5,9.00405566 6.5,8.88105566 L6.5,8.88105566 L6.5,8.33333333 C6.5,8.149 6.654,8 6.84375,8 L6.84375,8 Z" id="Combined-Shape" fill="#FFFFFF" fill-rule="nonzero"></path>
                            </g>
                        </g>
                    </g>
                </g>
            </g>
        </g>
    </g>
</svg>