<?xml version="1.0" encoding="UTF-8"?>
<svg width="68px" height="56px" viewBox="0 0 68 56" version="1.1" xmlns="http://www.w3.org/2000/svg" xmlns:xlink="http://www.w3.org/1999/xlink">
    <!-- Generator: Sketch 60.1 (88133) - https://sketch.com -->
    <title>Icon-3</title>
    <desc>Created with Sketch.</desc>
    <g id="Product-page" stroke="none" stroke-width="1" fill="none" fill-rule="evenodd">
        <g id="Desktop" transform="translate(-1078.000000, -2116.000000)">
            <g id="Product-page-value" transform="translate(0.000000, 2060.000000)">
                <g id="Item" transform="translate(931.000000, 0.000000)">
                    <g id="Icon-3" transform="translate(145.000000, 48.000000)">
                        <rect id="Base" x="0" y="0" width="72" height="72"></rect>
                        <path d="M68.8644646,57.562307 L68.8645246,57.5623754 C69.5974907,58.3990795 69.6422941,59.2885486 69.3134718,60.025006 C68.2498546,62.420535 61.1371358,63.3665184 49.9950842,63.5 L36.1154448,63.5 C32.5177872,63.5 29.0447372,62.0437325 26.5853267,59.5024473 C24.8440258,57.7018837 22.0881929,51.5889523 18.3088762,41.2126338 C18.1564426,40.7896282 18.1126772,40.669367 18.0890357,40.6103331 C17.3741913,38.7764174 16.7139769,37.3596044 16.0110702,36.1486305 C15.7632326,35.72198 15.6429513,35.520165 15.4835143,35.2711491 C14.9409491,34.4237462 14.4568281,33.9060939 14.0427717,33.7730112 C13.9814263,33.7530071 13.9886862,33.7521063 13.9618825,33.7670152 C13.6296997,33.949056 13.1633633,34.7892557 12.8955791,35.8132713 C12.3288223,37.9808195 12.2587356,38.8043368 12.3047814,41.4951442 C12.3073918,41.6582631 12.3073918,41.6582631 12.3101144,41.8266298 C12.3189699,42.3784772 12.3232279,42.7322598 12.3246864,43.139057 C12.3319691,44.976345 12.3348188,47.8051846 12.334095,51.3681157 C12.3336625,53.4973065 12.3319843,55.7695694 12.3294256,58.1048091 C12.328465,58.9815209 12.3274508,59.8037283 12.326353,60.6245702 C12.3251691,61.4896919 12.3251691,61.4896919 12.3246896,61.8482219 C12.3231868,62.7356479 11.6061835,63.5 10.7250055,63.5 L6.32613701,63.5 C5.4418189,63.5 4.72645212,62.7819612 4.72645359,61.8957994 L4.7298051,60.5134486 C4.73684098,58.166782 4.73724807,56.9658031 4.72654173,56.4123467 C4.7111251,55.5981573 4.68266611,54.7505818 4.63577326,53.6191938 C4.62459394,53.3494695 4.61432592,53.1086995 4.59512162,52.6632189 C4.59226388,52.596935 4.59226388,52.596935 4.58937,52.5297919 L4.51237204,50.6674381 C4.36828661,46.9081534 4.15073771,43.0968086 3.86572846,39.3426829 C3.51307626,34.7154596 3.31275882,32.4469755 2.97824032,29.7447779 L2.9584707,29.5833098 C2.27301619,24.042916 2.26017828,21.4167558 3.40435982,18.4738711 C4.43420442,15.8224944 6.24992187,13.2982515 8.94780755,10.7553587 C9.36386294,10.3626314 9.79463913,9.97814597 10.2402943,9.60129752 C12.1137789,8.01493207 14.9213737,8.15873173 16.6376493,9.92704805 C20.1025716,13.4998804 23.3034936,18.0275097 25.4080658,23.3189984 C26.6177845,26.3609937 27.9857097,29.5284782 29.5902607,33.0042057 L30.7339162,35.4670589 C32.4276582,39.109793 33.2133663,40.8267223 34.1292689,42.9256544 C35.2321483,45.454579 36.0971943,46.8718881 37.3588298,47.8324837 C38.7535278,48.8942152 40.5222165,49.3288389 42.3167862,49.2790877 C43.8910978,49.250387 45.6195362,48.9131193 47.6084535,48.2434338 C47.9440692,48.1318488 48.30412,48.1330677 48.6365073,48.2474687 C49.5485308,48.56234 50.7324173,48.9826509 52.1251012,49.4952149 C54.2242185,50.267775 56.3132117,51.0733045 58.2905714,51.8850684 C63.804648,54.1487577 67.5683932,56.0833431 68.8644646,57.562307 Z" id="Path" stroke="#BDD6FE" fill-rule="nonzero"></path>
                    </g>
                </g>
            </g>
        </g>
    </g>
</svg>