<?xml version="1.0" encoding="UTF-8"?>
<svg width="24px" height="24px" viewBox="0 0 24 24" version="1.1" xmlns="http://www.w3.org/2000/svg" xmlns:xlink="http://www.w3.org/1999/xlink">
    <!-- Generator: Sketch 60.1 (88133) - https://sketch.com -->
    <title>pinterest</title>
    <desc>Created with Sketch.</desc>
    <g id="Filled-icons" stroke="none" stroke-width="1" fill="none" fill-rule="evenodd">
        <g id="pinterest" fill-rule="nonzero">
            <circle id="Oval" fill="#CB2027" cx="11.9148319" cy="11.9150442" r="11.9146195"></circle>
            <path d="M12.876531,15.955115 C11.9757876,15.8854513 11.5973097,15.4387965 10.8909027,15.0099823 C10.5026549,17.0470088 10.028177,18.9997168 8.62279646,20.019823 C8.18846018,16.9410265 9.25953982,14.628531 9.75695575,12.1739469 C8.90909735,10.7466903 9.85890265,7.8739115 11.6472212,8.58180531 C13.8482124,9.45217699 9.74166372,13.8887788 12.4984779,14.4429027 C15.3765664,15.0214513 16.5515044,9.44899115 14.7665841,7.63646018 C12.1877522,5.01961062 7.26010619,7.57699115 7.8660531,11.323115 C8.01366372,12.2389381 8.9600708,12.5169558 8.24410619,13.7806726 C6.59362832,13.4151504 6.10130973,12.1134159 6.16460177,10.3779823 C6.26676106,7.53727434 8.71709735,5.54824779 11.1748673,5.27299115 C14.2831858,4.92509735 17.2005664,6.41437168 17.6032566,9.33812389 C18.0562832,12.6380177 16.2,16.2116814 12.876531,15.955115 L12.876531,15.955115 Z" id="Path" fill="#F1F2F2"></path>
        </g>
    </g>
</svg>