<?xml version="1.0" encoding="UTF-8"?>
<svg width="24px" height="24px" viewBox="0 0 24 24" version="1.1" xmlns="http://www.w3.org/2000/svg" xmlns:xlink="http://www.w3.org/1999/xlink">
    <!-- Generator: Sketch 60.1 (88133) - https://sketch.com -->
    <title>Icons/Social/Multi/Twitter</title>
    <desc>Created with Sketch.</desc>
    <g id="Product-page" stroke="none" stroke-width="1" fill="none" fill-rule="evenodd">
        <g id="Desktop" transform="translate(-918.000000, -943.000000)">
            <g id="Product" transform="translate(147.000000, 144.000000)">
                <g id="Detail" transform="translate(686.000000, 0.000000)">
                    <g id="Share" transform="translate(0.000000, 799.000000)">
                        <g id="Icons/Social/Multi/Twitter" transform="translate(85.000000, 0.000000)">
                            <g id="Twitter">
                                <circle id="Oval" fill="#1DA1F2" cx="12" cy="12" r="12"></circle>
                                <path d="M18.5,8.18377139 C18.0584925,8.3845526 17.5840275,8.52028154 17.0859825,8.58129111 C17.5943125,8.26886538 17.9846825,7.77411845 18.168485,7.1846053 C17.692815,7.47391308 17.165925,7.68401018 16.605125,7.79723897 C16.156035,7.30657831 15.51619,7 14.8081125,7 C13.4484,7 12.346095,8.13032167 12.346095,9.52445677 C12.346095,9.72233862 12.36787,9.91498574 12.4098325,10.0997705 C10.3637325,9.99449891 8.5496575,8.98944951 7.3353875,7.46209006 C7.1234675,7.8349537 7.002075,8.26860133 7.002075,8.73126049 C7.002075,9.60708976 7.43672,10.3798008 8.0973075,10.8325289 C7.69374,10.8194318 7.3141275,10.7058518 6.9821825,10.5167603 C6.98201,10.5273092 6.9819725,10.5378607 6.9819725,10.5484968 C6.9819725,11.7716723 7.8306025,12.7920209 8.9568725,13.0239234 C8.7502675,13.0815876 8.53277,13.1124474 8.3082475,13.1124474 C8.1496025,13.1124474 7.995375,13.0966227 7.8450475,13.0671728 C8.158345,14.070115 9.06755,14.800015 10.14487,14.8204105 C9.30228,15.4974812 8.240735,15.9010663 7.08729,15.9010663 C6.8885675,15.9010637 6.69259,15.8891099 6.5,15.8658125 C7.589535,16.5820848 8.8836175,17 10.2739325,17 C14.8023675,17 17.2786575,13.1532333 17.2786575,9.81718943 C17.2786575,9.70774185 17.27626,9.59886851 17.2715425,9.49061041 C17.7525275,9.13467123 18.169945,8.69003115 18.5,8.18377139 Z" id="Path" fill="#FFFFFF" fill-rule="nonzero"></path>
                            </g>
                        </g>
                    </g>
                </g>
            </g>
        </g>
    </g>
</svg>