<?xml version="1.0" encoding="UTF-8"?>
<svg width="32px" height="24px" viewBox="0 0 32 24" version="1.1" xmlns="http://www.w3.org/2000/svg" xmlns:xlink="http://www.w3.org/1999/xlink">
    <!-- Generator: Sketch 60.1 (88133) - https://sketch.com -->
    <title>48px_amazon</title>
    <desc>Created with Sketch.</desc>
    <g id="Symbols" stroke="none" stroke-width="1" fill="none" fill-rule="evenodd">
        <g id="Components/Footer/Desktop" transform="translate(-1261.000000, -341.000000)">
            <g id="Payment" transform="translate(1069.000000, 341.000000)">
                <g id="48px_amazon" transform="translate(192.000000, 0.000000)">
                    <path d="M29.9130435,0 L2.08695652,0 C0.93426087,0 0,0.948 0,2.11764706 L0,21.8823529 C0,23.052 0.93426087,24 2.08695652,24 L29.9130435,24 C31.0657391,24 32,23.052 32,21.8823529 L32,2.11764706 C32,0.948 31.0657391,0 29.9130435,0 Z" id="Path" fill="#D6CCB3"></path>
                    <path d="M19.0149565,14.4592941 C17.5596522,15.5491765 15.4504348,16.1287059 13.634087,16.1287059 C11.088,16.1287059 8.79582609,15.1736471 7.06086957,13.584 C6.92452174,13.4590588 7.04626087,13.2889412 7.20973913,13.3856471 C9.08173913,14.4910588 11.3961739,15.1567059 13.7871304,15.1567059 C15.3996522,15.1567059 17.1728696,14.8171765 18.8041739,14.1148235 C19.0497391,14.0089412 19.2556522,14.2792941 19.0149565,14.4592941 Z" id="Path" fill="#FFFFFF"></path>
                    <path d="M19.6201739,13.7583529 C19.4337391,13.5162353 18.3895652,13.644 17.9206957,13.7004706 C17.7787826,13.7174118 17.7565217,13.5917647 17.8845217,13.5007059 C18.7172174,12.9070588 20.082087,13.0785882 20.2406957,13.2769412 C20.4006957,13.4774118 20.1989565,14.8658824 19.4184348,15.5287059 C19.298087,15.6303529 19.184,15.576 19.2375652,15.4418824 C19.4135652,14.9964706 19.8066087,13.9997647 19.6201739,13.7583529 Z" id="Path" fill="#FFFFFF"></path>
                    <path d="M17.954087,9.30705882 L17.954087,8.73035294 C17.954087,8.64282353 18.0194783,8.58423529 18.098087,8.58423529 L20.6455652,8.58423529 C20.7269565,8.58423529 20.7923478,8.64423529 20.7923478,8.72964706 L20.7923478,9.22447059 C20.7916522,9.30776471 20.7227826,9.41576471 20.6003478,9.58729412 L19.2806957,11.4995294 C19.7704348,11.4875294 20.2886957,11.5623529 20.733913,11.8164706 C20.8347826,11.8729412 20.861913,11.9576471 20.8695652,12.0409412 L20.8695652,12.6564706 C20.8695652,12.7411765 20.7784348,12.8392941 20.6817391,12.7884706 C19.8977391,12.372 18.8570435,12.3261176 17.9895652,12.7934118 C17.9012174,12.8414118 17.808,12.7447059 17.808,12.66 L17.808,12.0748235 C17.808,11.9809412 17.8093913,11.8214118 17.9026087,11.6781176 L19.4316522,9.45247059 L18.1001739,9.45247059 C18.0201739,9.45247059 17.9547826,9.39317647 17.954087,9.30705882 Z" id="Path" fill="#FFFFFF"></path>
                    <path d="M8.66086957,12.9098824 L7.88591304,12.9098824 C7.81217391,12.9049412 7.75304348,12.8484706 7.74747826,12.7771765 L7.74817391,8.74023529 C7.74817391,8.65976471 7.81495652,8.59482353 7.89773913,8.59482353 L8.61982609,8.59482353 C8.69565217,8.59905882 8.75617391,8.65694118 8.76104348,8.73035294 L8.76104348,9.25764706 L8.77565217,9.25764706 C8.96347826,8.748 9.31826087,8.51011765 9.79547826,8.51011765 C10.2803478,8.51011765 10.5843478,8.748 10.8013913,9.25764706 C10.9892174,8.748 11.4163478,8.51011765 11.872,8.51011765 C12.1975652,8.51011765 12.5523478,8.64635294 12.7693913,8.952 C13.0156522,9.29152941 12.9648696,9.78423529 12.9648696,10.2176471 L12.9641739,12.7651765 C12.9641739,12.8456471 12.8973913,12.9105882 12.8146087,12.9105882 L12.0403478,12.9105882 C11.9624348,12.9056471 11.9012174,12.8428235 11.9012174,12.7658824 L11.9012174,10.6256471 C11.9012174,10.4555294 11.9158261,10.0312941 11.8796522,9.86964706 C11.821913,9.59788235 11.648,9.52164706 11.424,9.52164706 C11.2361739,9.52164706 11.0406957,9.64941176 10.9606957,9.85270588 C10.8813913,10.0567059 10.8883478,10.3962353 10.8883478,10.6256471 L10.8883478,12.7651765 C10.8883478,12.8456471 10.8215652,12.9105882 10.7387826,12.9105882 L9.96452174,12.9105882 C9.8866087,12.9056471 9.8253913,12.8428235 9.8253913,12.7658824 L9.82469565,10.6256471 C9.82469565,10.1752941 9.89704348,9.51317647 9.34747826,9.51317647 C8.79026087,9.51317647 8.81182609,10.1590588 8.81182609,10.6256471 L8.81182609,12.7651765 C8.81043478,12.8449412 8.74295652,12.9098824 8.66086957,12.9098824 Z" id="Path" fill="#FFFFFF"></path>
                    <path d="M22.9864348,8.50941176 C21.8650435,8.50941176 21.2424348,9.48635294 21.2424348,10.7435294 C21.2424348,11.9922353 21.8573913,12.9945882 22.9864348,12.9945882 C24.0716522,12.9945882 24.7589565,12.0176471 24.7589565,10.7858824 C24.7589565,9.51176471 24.1363478,8.50941176 22.9864348,8.50941176 Z M22.9864348,12.1623529 C22.3784348,12.1623529 22.3860846,11.1091765 22.3860846,10.6164706 C22.3860846,10.1237647 22.4222609,9.33388235 22.994087,9.33388235 C23.2396522,9.33388235 23.4135652,9.444 23.5005217,9.72494118 C23.602087,10.0475294 23.616,10.4555294 23.616,10.7950588 C23.616,11.3124706 23.5867826,12.1623529 22.9864348,12.1623529 Z" id="Shape" fill="#FFFFFF" fill-rule="nonzero"></path>
                    <path d="M26.2504348,12.9098824 L25.4782609,12.9098824 C25.4003478,12.9049412 25.3391304,12.8421176 25.3391304,12.7651765 L25.3377391,8.72682353 C25.344,8.65270588 25.4086957,8.59482353 25.4866087,8.59482353 L26.205913,8.59482353 C26.2733913,8.59835294 26.3290435,8.64494118 26.3436522,8.70776471 L26.3436522,9.32541176 L26.3582609,9.32541176 C26.5753043,8.77341176 26.8793043,8.51011765 27.4142609,8.51011765 C27.7613913,8.51011765 28.1015652,8.63788235 28.3186087,8.98588235 C28.5217391,9.30776471 28.5217391,9.852 28.5217391,10.2423529 L28.5217391,12.7821176 C28.5126957,12.8534118 28.450087,12.9091765 28.3728696,12.9091765 L27.5958261,12.9091765 C27.5241739,12.9042353 27.4664348,12.8512941 27.458087,12.7821176 L27.458087,10.5903529 C27.458087,10.1484706 27.5088696,9.50329412 26.9732174,9.50329412 C26.7846957,9.50329412 26.6114783,9.63105882 26.5245217,9.82588235 C26.416,10.0722353 26.4013913,10.3185882 26.4013913,10.5903529 L26.4013913,12.7637647 C26.4,12.8449412 26.3332174,12.9098824 26.2504348,12.9098824 Z" id="Path" fill="#FFFFFF"></path>
                    <path d="M17.3036522,12.1701176 C17.1617391,11.9717647 17.0107826,11.8101176 17.0107826,11.4409412 L17.0107826,10.2155294 C17.0107826,9.696 17.0469565,9.21952941 16.669913,8.86164706 C16.3728696,8.57294118 15.8796522,8.47058824 15.5026087,8.47058824 C14.7652174,8.47058824 13.9422609,8.75011765 13.7690435,9.67482353 C13.7509565,9.77294118 13.8212174,9.82447059 13.8845217,9.83929412 L14.6358261,9.92188235 C14.706087,9.91835294 14.7568696,9.84847059 14.7707826,9.77717647 C14.8354783,9.45882353 15.0984348,9.30494118 15.394087,9.30494118 C15.5533913,9.30494118 15.7349565,9.36423529 15.8288696,9.50894118 C15.9373913,9.67058824 15.9227826,9.89223529 15.9227826,10.0792941 L15.9227826,10.1816471 C15.4733913,10.2324706 14.8855652,10.2670588 14.4653913,10.4541176 C13.9798261,10.6672941 13.6389565,11.1014118 13.6389565,11.7395294 C13.6389565,12.5569412 14.1467826,12.9656471 14.7993043,12.9656471 C15.3502609,12.9656471 15.6514783,12.8336471 16.0772174,12.3938824 C16.2177391,12.6007059 16.2643478,12.7009412 16.5217391,12.9176471 C16.5794783,12.9494118 16.6532174,12.9458824 16.7046957,12.8992941 L16.7067826,12.9014118 C16.861913,12.7616471 17.1429565,12.5138824 17.3008696,12.3790588 C17.3641739,12.3268235 17.3530435,12.2414118 17.3036522,12.1701176 Z M15.9234783,10.9821176 C15.9234783,11.2884706 15.9304348,11.544 15.7787826,11.8164706 C15.6556522,12.0381176 15.4594783,12.1743529 15.2424348,12.1743529 C14.9453913,12.1743529 14.7714783,11.9442353 14.7714783,11.604 C14.7714783,10.9341176 15.3634783,10.812 15.9241739,10.812 L15.9241739,10.9821176 L15.9234783,10.9821176 Z" id="Shape" fill="#FFFFFF" fill-rule="nonzero"></path>
                    <path d="M7.14226087,12.1701176 C7.00034783,11.9717647 6.8493913,11.8101176 6.8493913,11.4409412 L6.8493913,10.2155294 C6.8493913,9.696 6.88556522,9.21952941 6.50852174,8.86164706 C6.21147826,8.57294118 5.71895652,8.47058824 5.34191304,8.47058824 C4.60452174,8.47058824 3.78086957,8.75011765 3.60834783,9.67482353 C3.59026087,9.77294118 3.66052174,9.82447059 3.72382609,9.83929412 L4.47513043,9.92188235 C4.5453913,9.91835294 4.59617391,9.84847059 4.61008696,9.77717647 C4.67478261,9.45882353 4.93773913,9.30494118 5.2333913,9.30494118 C5.39269565,9.30494118 5.57426087,9.36423529 5.66817391,9.50894118 C5.77669565,9.67058824 5.76208696,9.89223529 5.76208696,10.0792941 L5.76208696,10.1816471 C5.31269565,10.2324706 4.72556522,10.2670588 4.30469565,10.4541176 C3.81913043,10.6672941 3.47826087,11.1014118 3.47826087,11.7395294 C3.47826087,12.5569412 3.98608696,12.9656471 4.6386087,12.9656471 C5.18956522,12.9656471 5.49078261,12.8336471 5.91652174,12.3938824 C6.05704348,12.6007059 6.10365217,12.7009412 6.36104348,12.9176471 C6.41878261,12.9494118 6.49252174,12.9458824 6.544,12.8992941 L6.54608696,12.9014118 C6.70052174,12.7616471 6.98226087,12.5138824 7.14017391,12.3790588 C7.20278261,12.3268235 7.19165217,12.2414118 7.14226087,12.1701176 Z M5.76208696,10.9821176 C5.76208696,11.2884706 5.76904348,11.544 5.6173913,11.8164706 C5.49426087,12.0381176 5.29808696,12.1743529 5.08104348,12.1743529 C4.784,12.1743529 4.61008696,11.9442353 4.61008696,11.604 C4.61008696,10.9341176 5.20208696,10.812 5.76278261,10.812 L5.76278261,10.9821176 L5.76208696,10.9821176 Z" id="Shape" fill="#FFFFFF" fill-rule="nonzero"></path>
                </g>
            </g>
        </g>
    </g>
</svg>