<?xml version="1.0" encoding="UTF-8"?>
<svg width="32px" height="24px" viewBox="0 0 32 24" version="1.1" xmlns="http://www.w3.org/2000/svg" xmlns:xlink="http://www.w3.org/1999/xlink">
    <!-- Generator: Sketch 60.1 (88133) - https://sketch.com -->
    <title>48px_amex</title>
    <desc>Created with Sketch.</desc>
    <g id="Symbols" stroke="none" stroke-width="1" fill="none" fill-rule="evenodd">
        <g id="Components/Footer/Desktop" transform="translate(-1165.000000, -341.000000)">
            <g id="Payment" transform="translate(1069.000000, 341.000000)">
                <g id="48px_amex" transform="translate(96.000000, 0.000000)">
                    <path d="M29.9130435,0 L2.08695652,0 C0.93426087,0 0,0.948 0,2.11764706 L0,21.8823529 C0,23.052 0.93426087,24 2.08695652,24 L29.9130435,24 C31.0657391,24 32,23.052 32,21.8823529 L32,2.11764706 C32,0.948 31.0657391,0 29.9130435,0 Z" id="Path" fill="#D6CCB3"></path>
                    <path d="M6.63165217,12.3028235 L8.25252174,12.3028235 L7.44208696,10.2861176 L6.63165217,12.3028235 Z M29.2173913,8.47058824 L25.0650435,8.47058824 L24.0521739,9.57952941 L23.1401739,8.47058824 L14.3290435,8.47058824 L13.5186087,10.2854118 L12.7081739,8.47058824 L9.16313043,8.47058824 L9.16313043,9.27741176 L8.75826087,8.47058824 L5.71965217,8.47058824 L2.7826087,15.5294118 L6.32765217,15.5294118 L6.73252174,14.4204706 L7.7453913,14.4204706 L8.15026087,15.5294118 L12.1001739,15.5294118 L12.1001739,14.7225882 L12.4041739,15.5294118 L14.429913,15.5294118 L14.733913,14.6216471 L14.733913,15.5294118 L22.8368696,15.5294118 L23.8497391,14.4204706 L24.7610435,15.5294118 L28.9133913,15.5294118 L26.2803478,12 L29.2173913,8.47058824 Z M16.962087,14.5207059 L15.8476522,14.5207059 L15.8476522,10.5882353 L14.125913,14.5207059 L13.1130435,14.5207059 L11.3913043,10.5882353 L11.3913043,14.5207059 L9.06156522,14.5207059 L8.65669565,13.4117647 L6.22608696,13.4117647 L5.82121739,14.5207059 L4.50434783,14.5207059 L6.63095652,9.47858824 L8.35269565,9.47858824 L10.2768696,14.2178824 L10.2768696,9.47858824 L12.2010435,9.47858824 L13.7203478,12.9070588 L15.138087,9.47858824 L17.0622609,9.47858824 L17.0622609,14.5207059 L16.962087,14.5207059 L16.962087,14.5207059 Z M26.9892174,14.5207059 L25.469913,14.5207059 L24.1530435,12.8061176 L22.6337391,14.5207059 L18.0758261,14.5207059 L18.0758261,9.47858824 L22.7346087,9.47858824 L24.1523478,11.0922353 L25.6716522,9.47858824 L27.0893913,9.47858824 L24.861913,12 L26.9892174,14.5207059 Z M19.1902609,10.4872941 L19.1902609,11.3950588 L21.7224348,11.3950588 L21.7224348,12.4037647 L19.1902609,12.4037647 L19.1902609,13.4117647 L22.0264348,13.4117647 L23.3433043,11.8990588 L22.128,10.4872941 L19.1902609,10.4872941 Z" id="Shape" fill="#FFFFFF" fill-rule="nonzero"></path>
                </g>
            </g>
        </g>
    </g>
</svg>