<?xml version="1.0" encoding="UTF-8"?>
<svg width="32px" height="24px" viewBox="0 0 32 24" version="1.1" xmlns="http://www.w3.org/2000/svg" xmlns:xlink="http://www.w3.org/1999/xlink">
    <!-- Generator: Sketch 60.1 (88133) - https://sketch.com -->
    <title>48px-paypal</title>
    <desc>Created with Sketch.</desc>
    <g id="Symbols" stroke="none" stroke-width="1" fill="none" fill-rule="evenodd">
        <g id="Components/Footer/Desktop" transform="translate(-1213.000000, -341.000000)">
            <g id="Payment" transform="translate(1069.000000, 341.000000)">
                <g id="48px-paypal" transform="translate(144.000000, 0.000000)">
                    <path d="M29.9130435,0 L2.08695652,0 C0.93426087,0 0,0.948 0,2.11764706 L0,21.8823529 C0,23.052 0.93426087,24 2.08695652,24 L29.9130435,24 C31.0657391,24 32,23.052 32,21.8823529 L32,2.11764706 C32,0.948 31.0657391,0 29.9130435,0 Z" id="Path" fill="#D6CCB3"></path>
                    <path d="M20.3770435,8.61388235 L18.4292174,8.61388235 C18.2963478,8.61388235 18.1829565,8.712 18.162087,8.84541176 L17.3746087,13.9136471 C17.3593043,14.0138824 17.4351304,14.1042353 17.5353043,14.1042353 L18.5349565,14.1042353 C18.6281739,14.1042353 18.7074783,14.0350588 18.722087,13.9418824 L18.9453913,12.5047059 C18.9662609,12.3712941 19.0796522,12.2731765 19.2125217,12.2731765 L19.8288696,12.2731765 C21.1116522,12.2731765 21.8525217,11.6428235 22.045913,10.3941176 C22.1328696,9.84776471 22.0493913,9.41858824 21.7975652,9.11858824 C21.52,8.78894118 21.0288696,8.61388235 20.3770435,8.61388235 Z M20.6017391,10.4654118 C20.4953043,11.1748235 19.9610435,11.1748235 19.4448696,11.1748235 L19.1513043,11.1748235 L19.3572174,9.84988235 C19.3697391,9.77011765 19.437913,9.71082353 19.517913,9.71082353 C19.9457391,9.71082353 20.3213913,9.69317647 20.5078261,9.91411765 C20.610087,10.0362353 20.6406957,10.2162353 20.6017391,10.4654118 Z" id="Shape" fill="#F7F5F0" fill-rule="nonzero"></path>
                    <path d="M6.48347826,8.61388235 L4.53565217,8.61388235 C4.40278261,8.61388235 4.2893913,8.712 4.26852174,8.84541176 L3.48104348,13.9136471 C3.46573913,14.0138824 3.54156522,14.1042353 3.64173913,14.1042353 L4.57182609,14.1042353 C4.70469565,14.1042353 4.81808696,14.0061176 4.83895652,13.8727059 L5.05182609,12.5054118 C5.07269565,12.372 5.18608696,12.2738824 5.31895652,12.2738824 L5.93530435,12.2738824 C7.21808696,12.2738824 7.95895652,11.6435294 8.15234783,10.3948235 C8.23930435,9.84847059 8.15582609,9.41929412 7.904,9.11929412 C7.62573913,8.78894118 7.13530435,8.61388235 6.48347826,8.61388235 Z M6.70817391,10.4654118 C6.60173913,11.1748235 6.06747826,11.1748235 5.55130435,11.1748235 L5.25704348,11.1748235 L5.46295652,9.84988235 C5.47547826,9.77011765 5.54365217,9.71082353 5.62365217,9.71082353 L5.7586087,9.71082353 C6.10991304,9.71082353 6.44243478,9.71082353 6.61356522,9.91411765 C6.71582609,10.0362353 6.74713043,10.2162353 6.70817391,10.4654118 Z" id="Shape" fill="#FFFFFF" fill-rule="nonzero"></path>
                    <path d="M12.306087,10.4428235 L11.3732174,10.4428235 C11.2932174,10.4428235 11.2250435,10.5021176 11.2125217,10.5818824 L11.1714783,10.8465882 C11.0810435,10.7131765 10.9008696,10.3538824 10.0041739,10.3538824 C8.97391304,10.3538824 8.09321739,11.1465882 7.92208696,12.2576471 C7.83304348,12.8117647 7.95965217,13.3418824 8.26921739,13.7117647 C8.55373913,14.0512941 8.96,14.1931765 9.44417391,14.1931765 C10.2747826,14.1931765 10.7353043,13.6517647 10.7353043,13.6517647 L10.6935652,13.9150588 C10.6782609,14.0152941 10.754087,14.1056471 10.8542609,14.1056471 L11.6946087,14.1056471 C11.8274783,14.1056471 11.9408696,14.0075294 11.9617391,13.8741176 L12.466087,10.6341176 C12.4813913,10.5331765 12.4055652,10.4428235 12.306087,10.4428235 Z M11.005913,12.2851765 C10.9161739,12.8258824 10.4925217,13.1887059 9.9533913,13.1887059 C9.68278261,13.1887059 9.46643478,13.1004706 9.32730435,12.9331765 C9.18956522,12.7672941 9.1373913,12.5315294 9.18121739,12.2682353 C9.2653913,11.7324706 9.69530435,11.3576471 10.2267826,11.3576471 C10.4918261,11.3576471 10.7067826,11.4465882 10.8486957,11.6152941 C10.9906087,11.7854118 11.0469565,12.0232941 11.005913,12.2851765 Z" id="Shape" fill="#FFFFFF" fill-rule="nonzero"></path>
                    <path d="M26.1996522,10.4428235 L25.2667826,10.4428235 C25.1867826,10.4428235 25.1186087,10.5021176 25.106087,10.5818824 L25.0650435,10.8465882 C24.9746087,10.7131765 24.7944348,10.3538824 23.8977391,10.3538824 C22.8674783,10.3538824 21.9867826,11.1465882 21.8156522,12.2576471 C21.7266087,12.8117647 21.8532174,13.3418824 22.1627826,13.7117647 C22.4473043,14.0512941 22.8535652,14.1931765 23.3377391,14.1931765 C24.1683478,14.1931765 24.6288696,13.6517647 24.6288696,13.6517647 L24.5871304,13.9150588 C24.5718261,14.0152941 24.6476522,14.1056471 24.7478261,14.1056471 L25.5881739,14.1056471 C25.7210435,14.1056471 25.8344348,14.0075294 25.8553043,13.8741176 L26.3596522,10.6341176 C26.3756522,10.5331765 26.2991304,10.4428235 26.1996522,10.4428235 Z M24.8994783,12.2851765 C24.8090435,12.8258824 24.386087,13.1887059 23.8469565,13.1887059 C23.5763478,13.1887059 23.36,13.1004706 23.2208696,12.9331765 C23.0831304,12.7672941 23.0309565,12.5315294 23.0747826,12.2682353 C23.1589565,11.7324706 23.5888696,11.3576471 24.1203478,11.3576471 C24.3853913,11.3576471 24.6003478,11.4465882 24.7422609,11.6152941 C24.8841739,11.7854118 24.9405217,12.0232941 24.8994783,12.2851765 Z" id="Shape" fill="#F7F5F0" fill-rule="nonzero"></path>
                    <path d="M17.2737391,10.4428235 L16.336,10.4428235 C16.2462609,10.4428235 16.1627826,10.488 16.112,10.5635294 L14.8187826,12.4962353 L14.2706087,10.6390588 C14.2365217,10.5225882 14.1307826,10.4428235 14.0111304,10.4428235 L13.0893913,10.4428235 C12.978087,10.4428235 12.8994783,10.5536471 12.9356522,10.6609412 L13.968,13.7357647 L12.9968696,15.1263529 C12.9203478,15.2357647 12.9975652,15.3861176 13.1290435,15.3861176 L14.0653913,15.3861176 C14.1544348,15.3861176 14.2372174,15.3416471 14.288,15.2682353 L17.405913,10.7018824 C17.4817391,10.5917647 17.4045217,10.4428235 17.2737391,10.4428235 Z" id="Path" fill="#FFFFFF"></path>
                    <path d="M27.2987826,8.75364706 L26.4994783,13.9150588 C26.4841739,14.0152941 26.56,14.1056471 26.6601739,14.1056471 L27.4643478,14.1056471 C27.5972174,14.1056471 27.7106087,14.0075294 27.7314783,13.8741176 L28.5196522,8.80588235 C28.5349565,8.70564706 28.4591304,8.61526943 28.3589565,8.61526943 L27.4587826,8.61526943 C27.3794783,8.61388235 27.3113043,8.67317647 27.2987826,8.75364706 Z" id="Path" fill="#F7F5F0"></path>
                </g>
            </g>
        </g>
    </g>
</svg>