<?xml version="1.0" encoding="UTF-8"?>
<svg width="32px" height="24px" viewBox="0 0 32 24" version="1.1" xmlns="http://www.w3.org/2000/svg" xmlns:xlink="http://www.w3.org/1999/xlink">
    <!-- Generator: Sketch 60.1 (88133) - https://sketch.com -->
    <title>48px-visa</title>
    <desc>Created with Sketch.</desc>
    <g id="Symbols" stroke="none" stroke-width="1" fill="none" fill-rule="evenodd">
        <g id="Components/Footer/Desktop" transform="translate(-1069.000000, -341.000000)">
            <g id="Payment" transform="translate(1069.000000, 341.000000)">
                <g id="48px-visa">
                    <path d="M32,21.8823529 C32,23.052 31.0657391,24 29.9130435,24 L29.9130435,24 L2.08695652,24 C0.93426087,24 0,23.052 0,21.8823529 L0,21.8823529 L0,2.11764706 C0,0.948 0.93426087,-6.70574707e-14 2.08695652,-6.70574707e-14 L2.08695652,-6.70574707e-14 L29.9130435,-6.70574707e-14 C31.0657391,-6.70574707e-14 32,0.948 32,2.11764706 L32,2.11764706 Z" id="Combined-Shape" fill="#D6CCB3"></path>
                    <polygon id="Path" fill="#FFFFFF" points="12.6873043 15.3882353 14.5022609 15.3882353 15.6382609 8.62870588 13.8226087 8.62870588"></polygon>
                    <path d="M19.2994783,11.3428235 C18.6650435,11.0301176 18.2761739,10.8211765 18.2803478,10.5049412 C18.2803478,10.224 18.6093913,9.92329412 19.3203478,9.92329412 C19.901913,9.91411765 20.3707826,10.0341176 20.8424348,10.26 L21.0886957,8.79458824 C20.7290435,8.65764706 20.1655652,8.51082353 19.4615652,8.51082353 C17.6674783,8.51082353 16.4034783,9.42776471 16.3930435,10.7414118 C16.3826087,11.7127059 17.2953043,12.2548235 17.984,12.5781176 C18.6907826,12.9091765 18.9286957,13.1209412 18.9252174,13.4167059 C18.9210435,13.8698824 18.3610435,14.0767059 17.8386087,14.0767059 C17.0330435,14.0767059 16.6267826,13.9503529 15.8956522,13.6143529 L15.6410435,15.1277647 C16.0653913,15.3162353 16.8493913,15.48 17.664,15.4884706 C19.5728696,15.4884706 20.8118261,14.5821176 20.8257391,13.1788235 C20.8306087,12.4101176 20.3471304,11.8249412 19.2994783,11.3428235 Z" id="Path" fill="#FFFFFF"></path>
                    <path d="M25.744,8.63505882 L24.3408696,8.63505882 C23.906087,8.63505882 23.5812174,8.75576471 23.389913,9.19552941 L20.6935652,15.3903529 L22.6003478,15.3903529 C22.6003478,15.3903529 22.912,14.5574118 22.9829565,14.3745882 C23.1916522,14.3745882 25.0434783,14.3774118 25.3085217,14.3774118 C25.3627826,14.6138824 25.5297391,15.3903529 25.5297391,15.3903529 L27.2146087,15.3903529 L25.744,8.63505882 Z M23.5053913,12.9924706 C23.5805217,12.7976471 24.3213913,10.8670588 24.4695652,10.4576471 C24.7151304,11.6230588 24.4758261,10.4922353 25.0128696,12.9924706 L23.5053913,12.9924706 Z" id="Shape" fill="#FFFFFF" fill-rule="nonzero"></path>
                    <path d="M11.1645217,8.63364706 L9.38643478,13.2430588 L9.19721739,12.3063529 L8.56069565,9.19976471 C8.45078261,8.772 8.13217391,8.64423529 7.73773913,8.62941176 L4.80904348,8.62941176 L4.78608696,8.76988235 C5.49843478,8.94494118 6.13495652,9.19764706 6.69356522,9.51105882 L8.30817391,15.3818824 L10.2295652,15.3797647 L13.088,8.63294118 L11.1645217,8.63294118 L11.1645217,8.63364706 Z" id="Path" fill="#FFFFFF"></path>
                </g>
            </g>
        </g>
    </g>
</svg>